G04 #@! TF.GenerationSoftware,KiCad,Pcbnew,10.0.5*
G04 #@! TF.CreationDate,2026-10-08T11:43:48+02:00*
G04 #@! TF.ProjectId,Audio_Amp_v1,41756469-6f5f-4416-9d70-5f76312e6b69,rev?*
G04 #@! TF.SameCoordinates,Original*
G04 #@! TF.FileFunction,Copper,L1,Top*
G04 #@! TF.FilePolarity,Positive*
%FSLAX46Y46*%
G04 Gerber Fmt 4.6, Leading zero omitted, Abs format (unit mm)*
G04 Created by KiCad (PCBNEW 10.0.5) date 2026-10-08 11:43:48*
%MOMM*%
%LPD*%
G01*
G04 APERTURE LIST*
G04 Aperture macros list*
%AMRoundRect*
0 Rectangle with rounded corners*
0 $1 Rounding radius*
0 $2 $3 $4 $5 $6 $7 $8 $9 X,Y pos of 4 corners*
0 Add a 4 corners polygon primitive as box body*
4,1,4,$2,$3,$4,$5,$6,$7,$8,$9,$2,$3,0*
0 Add four circle primitives for the rounded corners*
1,1,$1+$1,$2,$3*
1,1,$1+$1,$4,$5*
1,1,$1+$1,$6,$7*
1,1,$1+$1,$8,$9*
0 Add four rect primitives between the rounded corners*
20,1,$1+$1,$2,$3,$4,$5,0*
20,1,$1+$1,$4,$5,$6,$7,0*
20,1,$1+$1,$6,$7,$8,$9,0*
20,1,$1+$1,$8,$9,$2,$3,0*%
G04 Aperture macros list end*
G04 #@! TA.AperFunction,SMDPad,CuDef*
%ADD10RoundRect,0.250000X-0.475000X0.250000X-0.475000X-0.250000X0.475000X-0.250000X0.475000X0.250000X0*%
G04 #@! TD*
G04 #@! TA.AperFunction,SMDPad,CuDef*
%ADD11R,2.400000X3.400000*%
G04 #@! TD*
G04 #@! TA.AperFunction,SMDPad,CuDef*
%ADD12C,2.000000*%
G04 #@! TD*
G04 #@! TA.AperFunction,SMDPad,CuDef*
%ADD13RoundRect,0.250000X0.475000X-0.250000X0.475000X0.250000X-0.475000X0.250000X-0.475000X-0.250000X0*%
G04 #@! TD*
G04 #@! TA.AperFunction,SMDPad,CuDef*
%ADD14RoundRect,0.225000X-0.250000X0.225000X-0.250000X-0.225000X0.250000X-0.225000X0.250000X0.225000X0*%
G04 #@! TD*
G04 #@! TA.AperFunction,SMDPad,CuDef*
%ADD15RoundRect,0.200000X-0.200000X-0.275000X0.200000X-0.275000X0.200000X0.275000X-0.200000X0.275000X0*%
G04 #@! TD*
G04 #@! TA.AperFunction,SMDPad,CuDef*
%ADD16RoundRect,0.250000X-0.650000X0.325000X-0.650000X-0.325000X0.650000X-0.325000X0.650000X0.325000X0*%
G04 #@! TD*
G04 #@! TA.AperFunction,SMDPad,CuDef*
%ADD17RoundRect,0.250000X0.312500X0.625000X-0.312500X0.625000X-0.312500X-0.625000X0.312500X-0.625000X0*%
G04 #@! TD*
G04 #@! TA.AperFunction,SMDPad,CuDef*
%ADD18R,1.475000X0.450000*%
G04 #@! TD*
G04 #@! TA.AperFunction,SMDPad,CuDef*
%ADD19R,3.238124X4.500000*%
G04 #@! TD*
G04 #@! TA.AperFunction,SMDPad,CuDef*
%ADD20RoundRect,0.250000X-0.312500X-0.625000X0.312500X-0.625000X0.312500X0.625000X-0.312500X0.625000X0*%
G04 #@! TD*
G04 #@! TA.AperFunction,SMDPad,CuDef*
%ADD21RoundRect,0.250000X0.650000X-0.325000X0.650000X0.325000X-0.650000X0.325000X-0.650000X-0.325000X0*%
G04 #@! TD*
G04 #@! TA.AperFunction,SMDPad,CuDef*
%ADD22RoundRect,0.225000X0.250000X-0.225000X0.250000X0.225000X-0.250000X0.225000X-0.250000X-0.225000X0*%
G04 #@! TD*
G04 #@! TA.AperFunction,SMDPad,CuDef*
%ADD23RoundRect,0.200000X-0.275000X0.200000X-0.275000X-0.200000X0.275000X-0.200000X0.275000X0.200000X0*%
G04 #@! TD*
G04 #@! TA.AperFunction,SMDPad,CuDef*
%ADD24R,2.600000X2.400000*%
G04 #@! TD*
G04 #@! TA.AperFunction,ComponentPad*
%ADD25R,1.950000X1.950000*%
G04 #@! TD*
G04 #@! TA.AperFunction,ComponentPad*
%ADD26C,1.950000*%
G04 #@! TD*
G04 #@! TA.AperFunction,SMDPad,CuDef*
%ADD27RoundRect,0.243750X-0.243750X-0.456250X0.243750X-0.456250X0.243750X0.456250X-0.243750X0.456250X0*%
G04 #@! TD*
G04 #@! TA.AperFunction,SMDPad,CuDef*
%ADD28RoundRect,0.225000X-0.225000X-0.250000X0.225000X-0.250000X0.225000X0.250000X-0.225000X0.250000X0*%
G04 #@! TD*
G04 #@! TA.AperFunction,ComponentPad*
%ADD29C,3.000000*%
G04 #@! TD*
G04 #@! TA.AperFunction,SMDPad,CuDef*
%ADD30R,1.300000X1.100000*%
G04 #@! TD*
G04 #@! TA.AperFunction,SMDPad,CuDef*
%ADD31R,4.400000X2.500000*%
G04 #@! TD*
G04 #@! TA.AperFunction,SMDPad,CuDef*
%ADD32RoundRect,0.225000X0.225000X0.250000X-0.225000X0.250000X-0.225000X-0.250000X0.225000X-0.250000X0*%
G04 #@! TD*
G04 #@! TA.AperFunction,SMDPad,CuDef*
%ADD33RoundRect,0.200000X0.200000X0.275000X-0.200000X0.275000X-0.200000X-0.275000X0.200000X-0.275000X0*%
G04 #@! TD*
G04 #@! TA.AperFunction,SMDPad,CuDef*
%ADD34RoundRect,0.250000X-0.625000X0.312500X-0.625000X-0.312500X0.625000X-0.312500X0.625000X0.312500X0*%
G04 #@! TD*
G04 #@! TA.AperFunction,SMDPad,CuDef*
%ADD35R,0.700000X1.500000*%
G04 #@! TD*
G04 #@! TA.AperFunction,SMDPad,CuDef*
%ADD36R,1.500000X0.760000*%
G04 #@! TD*
G04 #@! TA.AperFunction,SMDPad,CuDef*
%ADD37R,1.525000X0.650000*%
G04 #@! TD*
G04 #@! TA.AperFunction,SMDPad,CuDef*
%ADD38R,2.600000X3.100000*%
G04 #@! TD*
G04 #@! TA.AperFunction,ComponentPad*
%ADD39R,0.985000X0.985000*%
G04 #@! TD*
G04 #@! TA.AperFunction,ComponentPad*
%ADD40C,0.985000*%
G04 #@! TD*
G04 #@! TA.AperFunction,ViaPad*
%ADD41C,0.600000*%
G04 #@! TD*
G04 #@! TA.AperFunction,Conductor*
%ADD42C,0.400000*%
G04 #@! TD*
G04 #@! TA.AperFunction,Conductor*
%ADD43C,1.000000*%
G04 #@! TD*
G04 #@! TA.AperFunction,Conductor*
%ADD44C,0.200000*%
G04 #@! TD*
G04 #@! TA.AperFunction,Conductor*
%ADD45C,0.600000*%
G04 #@! TD*
G04 #@! TA.AperFunction,Conductor*
%ADD46C,0.300000*%
G04 #@! TD*
G04 #@! TA.AperFunction,Conductor*
%ADD47C,0.500000*%
G04 #@! TD*
G04 APERTURE END LIST*
D10*
X127000000Y-115550000D03*
X127000000Y-117450000D03*
D11*
X101650000Y-85250000D03*
X95850000Y-85250000D03*
D12*
X90250000Y-101250000D03*
D13*
X91000000Y-89700000D03*
X91000000Y-87800000D03*
X128288000Y-107875000D03*
X128288000Y-105975000D03*
D14*
X148500000Y-101125000D03*
X148500000Y-102675000D03*
X148538000Y-119850000D03*
X148538000Y-121400000D03*
D10*
X117538000Y-97175000D03*
X117538000Y-99075000D03*
D12*
X101000000Y-104000000D03*
D14*
X146788000Y-119875000D03*
X146788000Y-121425000D03*
D15*
X109463000Y-106125000D03*
X111113000Y-106125000D03*
D13*
X93500000Y-92241124D03*
X93500000Y-90341124D03*
D16*
X144538000Y-114425000D03*
X144538000Y-117375000D03*
D17*
X149674500Y-104900000D03*
X146749500Y-104900000D03*
D15*
X101850000Y-96750000D03*
X103500000Y-96750000D03*
D18*
X114712000Y-103625000D03*
X114712000Y-104275000D03*
X114712000Y-104925000D03*
X114712000Y-105575000D03*
X114712000Y-106225000D03*
X114712000Y-106875000D03*
X114712000Y-107525000D03*
X114712000Y-108175000D03*
X114712000Y-108825000D03*
X114712000Y-109475000D03*
X114712000Y-110125000D03*
X114712000Y-110775000D03*
X114712000Y-111425000D03*
X114712000Y-112075000D03*
X114712000Y-112725000D03*
X114712000Y-113375000D03*
X122288000Y-113375000D03*
X122288000Y-112725000D03*
X122288000Y-112075000D03*
X122288000Y-111425000D03*
X122288000Y-110775000D03*
X122288000Y-110125000D03*
X122288000Y-109475000D03*
X122288000Y-108825000D03*
X122288000Y-108175000D03*
X122288000Y-107525000D03*
X122288000Y-106875000D03*
X122288000Y-106225000D03*
X122288000Y-105575000D03*
X122288000Y-104925000D03*
X122288000Y-104275000D03*
X122288000Y-103625000D03*
D19*
X118500000Y-108500000D03*
D20*
X146825500Y-113250000D03*
X149750500Y-113250000D03*
D21*
X90750000Y-94590000D03*
X90750000Y-91640000D03*
D22*
X111288000Y-101400000D03*
X111288000Y-99850000D03*
D23*
X98450000Y-111925000D03*
X98450000Y-113575000D03*
X75591068Y-104502930D03*
X75591068Y-106152930D03*
D16*
X144538000Y-119175000D03*
X144538000Y-122125000D03*
D14*
X146788000Y-115375000D03*
X146788000Y-116925000D03*
D24*
X132688000Y-113625000D03*
X139888000Y-113625000D03*
D25*
X157000000Y-116500000D03*
D26*
X157000000Y-121580000D03*
D27*
X91247717Y-105849055D03*
X93122717Y-105849055D03*
D28*
X96925000Y-116250000D03*
X98475000Y-116250000D03*
D13*
X84250000Y-89700000D03*
X84250000Y-87800000D03*
D23*
X86250000Y-104425000D03*
X86250000Y-106075000D03*
D29*
X79515075Y-94550000D03*
X73515075Y-94550000D03*
X76515075Y-99250000D03*
D30*
X111988000Y-120075000D03*
D31*
X111638000Y-121875000D03*
D30*
X111988000Y-123675000D03*
X119588000Y-120075000D03*
D31*
X119938000Y-121875000D03*
D30*
X119588000Y-123675000D03*
D22*
X105250000Y-91525000D03*
X105250000Y-89975000D03*
D32*
X116063000Y-101375000D03*
X114513000Y-101375000D03*
D10*
X125250000Y-103800000D03*
X125250000Y-105700000D03*
D17*
X149750500Y-123650000D03*
X146825500Y-123650000D03*
D20*
X146749500Y-94500000D03*
X149674500Y-94500000D03*
D14*
X146750000Y-101125000D03*
X146750000Y-102675000D03*
D23*
X112788000Y-99800000D03*
X112788000Y-101450000D03*
D28*
X87675000Y-126750000D03*
X89225000Y-126750000D03*
D33*
X111113000Y-107625000D03*
X109463000Y-107625000D03*
D15*
X84425000Y-126750000D03*
X86075000Y-126750000D03*
D12*
X101750000Y-113500000D03*
D14*
X148538000Y-115350000D03*
X148538000Y-116900000D03*
D34*
X115038000Y-96662500D03*
X115038000Y-99587500D03*
D13*
X127250000Y-113450000D03*
X127250000Y-111550000D03*
X88750000Y-89700000D03*
X88750000Y-87800000D03*
D24*
X132688000Y-122875000D03*
X139888000Y-122875000D03*
D30*
X113188000Y-86525000D03*
D31*
X112838000Y-88325000D03*
D30*
X113188000Y-90125000D03*
X120788000Y-86525000D03*
D31*
X121138000Y-88325000D03*
D30*
X120788000Y-90125000D03*
D28*
X109513000Y-103125000D03*
X111063000Y-103125000D03*
D24*
X139888000Y-104125000D03*
X132688000Y-104125000D03*
D16*
X144538000Y-100425000D03*
X144538000Y-103375000D03*
D14*
X146750000Y-96625000D03*
X146750000Y-98175000D03*
D24*
X132588000Y-94875000D03*
X139788000Y-94875000D03*
D14*
X148500000Y-96625000D03*
X148500000Y-98175000D03*
D10*
X119788000Y-97175000D03*
X119788000Y-99075000D03*
D23*
X96950000Y-111925000D03*
X96950000Y-113575000D03*
D35*
X73200000Y-123500000D03*
X74400000Y-123500000D03*
X75600000Y-123500000D03*
X76800000Y-123500000D03*
X78000000Y-123500000D03*
X79200000Y-123500000D03*
X80400000Y-123500000D03*
X81600000Y-123500000D03*
X82800000Y-123500000D03*
X84000000Y-123500000D03*
X85200000Y-123500000D03*
X86400000Y-123500000D03*
X87600000Y-123500000D03*
X88800000Y-123500000D03*
X90000000Y-123500000D03*
X91200000Y-123500000D03*
X92400000Y-123500000D03*
D36*
X93850000Y-121050000D03*
X93850000Y-119850000D03*
X93850000Y-118650000D03*
X93850000Y-117450000D03*
X93850000Y-116250000D03*
X93850000Y-115050000D03*
X93850000Y-113850000D03*
X93850000Y-112650000D03*
X93850000Y-111450000D03*
D35*
X92400000Y-109000000D03*
X91200000Y-109000000D03*
X90000000Y-109000000D03*
X88800000Y-109000000D03*
X87600000Y-109000000D03*
X86400000Y-109000000D03*
X85200000Y-109000000D03*
X84000000Y-109000000D03*
X82800000Y-109000000D03*
X81600000Y-109000000D03*
X80400000Y-109000000D03*
X79200000Y-109000000D03*
X78000000Y-109000000D03*
X76800000Y-109000000D03*
X75600000Y-109000000D03*
X74400000Y-109000000D03*
X73200000Y-109000000D03*
D28*
X96925000Y-117750000D03*
X98475000Y-117750000D03*
D25*
X156750000Y-97670000D03*
D26*
X156750000Y-102750000D03*
D32*
X111800000Y-110625000D03*
X110250000Y-110625000D03*
D10*
X124750000Y-115550000D03*
X124750000Y-117450000D03*
D32*
X111775000Y-109125000D03*
X110225000Y-109125000D03*
D22*
X108006286Y-107660582D03*
X108006286Y-106110582D03*
D23*
X105000000Y-96675000D03*
X105000000Y-98325000D03*
D16*
X144538000Y-95675000D03*
X144538000Y-98625000D03*
D15*
X110175000Y-112750000D03*
X111825000Y-112750000D03*
D37*
X96038000Y-90960000D03*
X96038000Y-92230000D03*
X96038000Y-93500000D03*
X96038000Y-94770000D03*
X101462000Y-94770000D03*
X101462000Y-93500000D03*
X101462000Y-92230000D03*
X101462000Y-90960000D03*
D38*
X98750000Y-92865000D03*
D28*
X104975000Y-93500000D03*
X106525000Y-93500000D03*
D12*
X92250000Y-128000000D03*
D13*
X86500000Y-89700000D03*
X86500000Y-87800000D03*
D39*
X98210000Y-128250000D03*
D40*
X100750000Y-128250000D03*
X103290000Y-128250000D03*
D28*
X109513000Y-104625000D03*
X111063000Y-104625000D03*
D10*
X125000000Y-108300000D03*
X125000000Y-110200000D03*
D41*
X104250000Y-103500000D03*
X105000000Y-119750000D03*
X111288000Y-97750000D03*
X122500000Y-115550000D03*
X105500000Y-120250000D03*
X111288000Y-98750000D03*
X111288000Y-96500000D03*
X113188000Y-91250000D03*
X112000000Y-118000000D03*
X104500000Y-119250000D03*
X104250000Y-101500000D03*
X104250000Y-102500000D03*
X123250000Y-115550000D03*
X112750000Y-97500000D03*
X121750000Y-115550000D03*
X113188000Y-92000000D03*
X111988000Y-118750000D03*
X93000000Y-93250000D03*
X121750000Y-114250000D03*
X112750000Y-96500000D03*
X94750000Y-92250000D03*
X112750000Y-98500000D03*
X94000000Y-93250000D03*
X122750000Y-114250000D03*
X104250000Y-104500000D03*
X97750000Y-90750000D03*
X119000000Y-112250000D03*
X146000000Y-99500000D03*
X122750000Y-86250000D03*
X119000000Y-105250000D03*
X106500000Y-94750000D03*
X119588000Y-119000000D03*
X96250000Y-89750000D03*
X98750000Y-95000000D03*
X117000000Y-112250000D03*
X99750000Y-116250000D03*
X76515075Y-99250000D03*
X118500000Y-108000000D03*
X99750000Y-90750000D03*
X98750000Y-90750000D03*
X107000000Y-107750000D03*
X73250000Y-106500000D03*
X106500000Y-96750000D03*
X122500000Y-119750000D03*
X89250000Y-91000000D03*
X117500000Y-108500000D03*
X118000000Y-105250000D03*
X100750000Y-96250000D03*
X98250000Y-96250000D03*
X118500000Y-107000000D03*
X117000000Y-105250000D03*
X123750000Y-90500000D03*
X97750000Y-95000000D03*
X109250000Y-112750000D03*
X147000000Y-99500000D03*
X117000000Y-123750000D03*
X107750000Y-92500000D03*
X121500000Y-99075000D03*
X107750000Y-96750000D03*
X123500000Y-117450000D03*
X97250000Y-89750000D03*
X117500000Y-107000000D03*
X119000000Y-90250000D03*
X117250000Y-101250000D03*
X73515075Y-94550000D03*
X89250000Y-92000000D03*
X95250000Y-89750000D03*
X98250000Y-97250000D03*
X119500000Y-108500000D03*
X107750000Y-94750000D03*
X88000000Y-91000000D03*
X118000000Y-112250000D03*
X85000000Y-91000000D03*
X118250000Y-86250000D03*
X106500000Y-95750000D03*
X146000000Y-118500000D03*
X83750000Y-91000000D03*
X122500000Y-124000000D03*
X118500000Y-109000000D03*
X122750000Y-90500000D03*
X117000000Y-119750000D03*
X120000000Y-105250000D03*
X107750000Y-95750000D03*
X119500000Y-110000000D03*
X122500000Y-117450000D03*
X119500000Y-107000000D03*
X99500000Y-96250000D03*
X107750000Y-93500000D03*
X118500000Y-110000000D03*
X117750000Y-119750000D03*
X121500000Y-119750000D03*
X87750000Y-104500000D03*
X118250000Y-90250000D03*
X121500000Y-124000000D03*
X123750000Y-86250000D03*
X100750000Y-97250000D03*
X90500000Y-126750000D03*
X110250000Y-101750000D03*
X99500000Y-97250000D03*
X99750000Y-95000000D03*
X117500000Y-110000000D03*
X117750000Y-123750000D03*
X105750000Y-128250000D03*
X119000000Y-86250000D03*
X147000000Y-118500000D03*
X120000000Y-112250000D03*
X90500000Y-84750000D03*
X90250000Y-101250000D03*
X93750000Y-84000000D03*
X88250000Y-84750000D03*
X83750000Y-86500000D03*
X91750000Y-116250000D03*
X106250000Y-98250000D03*
X91500000Y-86500000D03*
X89250000Y-86500000D03*
X84750000Y-86500000D03*
X90500000Y-86500000D03*
X89250000Y-84750000D03*
X88250000Y-86500000D03*
X83750000Y-84000000D03*
X91500000Y-84750000D03*
X83000000Y-126750000D03*
X93750000Y-85250000D03*
X93750000Y-86500000D03*
X106750000Y-106250000D03*
X112738648Y-106776487D03*
X98500000Y-110000000D03*
X98000000Y-106250000D03*
X108125000Y-110625000D03*
X108000000Y-104625000D03*
X95250000Y-119850000D03*
X95500000Y-118650000D03*
D42*
X122288000Y-101962000D02*
X122750000Y-101500000D01*
D43*
X101250000Y-101500000D02*
X104250000Y-101500000D01*
D42*
X122750000Y-97750000D02*
X122175000Y-97175000D01*
D43*
X104250000Y-101500000D02*
X104250000Y-104500000D01*
D42*
X122288000Y-103625000D02*
X122288000Y-101962000D01*
D43*
X109000000Y-101500000D02*
X110650000Y-99850000D01*
X111288000Y-96500000D02*
X111288000Y-97500000D01*
X104750000Y-119500000D02*
X107125000Y-121875000D01*
X104250000Y-101500000D02*
X104750000Y-101500000D01*
D42*
X122750000Y-101500000D02*
X122750000Y-97750000D01*
D43*
X79515075Y-94550000D02*
X90710000Y-94550000D01*
X111988000Y-118012000D02*
X112000000Y-118000000D01*
D42*
X122288000Y-103625000D02*
X122288000Y-104275000D01*
D43*
X113188000Y-91250000D02*
X113188000Y-92000000D01*
X114450000Y-115550000D02*
X121750000Y-115550000D01*
X111288000Y-98750000D02*
X111288000Y-99850000D01*
X111288000Y-97750000D02*
X111288000Y-98500000D01*
D42*
X122175000Y-97175000D02*
X119788000Y-97175000D01*
D43*
X101250000Y-101500000D02*
X101000000Y-101750000D01*
X110650000Y-99850000D02*
X111288000Y-99850000D01*
X122500000Y-115550000D02*
X123250000Y-115550000D01*
X111988000Y-118750000D02*
X111988000Y-118012000D01*
X111288000Y-98500000D02*
X111288000Y-98750000D01*
X111288000Y-94962000D02*
X111288000Y-96500000D01*
X92340000Y-94590000D02*
X93750000Y-96000000D01*
D44*
X90710000Y-94550000D02*
X90750000Y-94590000D01*
D43*
X113188000Y-93062000D02*
X111288000Y-94962000D01*
X93750000Y-100250000D02*
X95000000Y-101500000D01*
X93750000Y-96000000D02*
X93750000Y-100250000D01*
X121750000Y-115550000D02*
X122500000Y-115550000D01*
X111288000Y-97500000D02*
X111288000Y-97750000D01*
X101000000Y-101750000D02*
X101000000Y-104000000D01*
X90750000Y-94590000D02*
X92340000Y-94590000D01*
X113188000Y-90125000D02*
X113188000Y-91250000D01*
X104750000Y-101500000D02*
X109000000Y-101500000D01*
X123250000Y-115550000D02*
X124750000Y-115550000D01*
X111988000Y-120075000D02*
X111988000Y-118750000D01*
X113188000Y-92000000D02*
X113188000Y-93062000D01*
X95000000Y-101500000D02*
X101250000Y-101500000D01*
X107125000Y-121875000D02*
X111638000Y-121875000D01*
X112000000Y-118000000D02*
X114450000Y-115550000D01*
D42*
X114712000Y-111425000D02*
X114712000Y-112075000D01*
D45*
X119588000Y-118662000D02*
X119588000Y-119000000D01*
D44*
X73200000Y-106550000D02*
X73250000Y-106500000D01*
D45*
X120800000Y-117450000D02*
X119588000Y-118662000D01*
D42*
X117538000Y-100212000D02*
X117538000Y-99075000D01*
X114712000Y-112725000D02*
X114712000Y-112075000D01*
D44*
X118500000Y-108500000D02*
X118500000Y-110250000D01*
X89225000Y-125225000D02*
X89225000Y-126750000D01*
D45*
X122500000Y-117450000D02*
X120800000Y-117450000D01*
D44*
X73200000Y-109000000D02*
X73200000Y-106550000D01*
D42*
X119788000Y-99075000D02*
X121500000Y-99075000D01*
D44*
X88800000Y-123500000D02*
X88800000Y-124800000D01*
X118175000Y-108825000D02*
X118500000Y-108500000D01*
X115625000Y-103625000D02*
X114712000Y-103625000D01*
D45*
X124750000Y-117450000D02*
X123500000Y-117450000D01*
D44*
X118825000Y-108175000D02*
X118500000Y-108500000D01*
X116063000Y-101375000D02*
X116063000Y-103187000D01*
X110600000Y-101400000D02*
X110250000Y-101750000D01*
X109427418Y-107660582D02*
X109463000Y-107625000D01*
D42*
X117538000Y-99075000D02*
X119788000Y-99075000D01*
X116063000Y-101375000D02*
X117125000Y-101375000D01*
D44*
X116063000Y-103187000D02*
X115625000Y-103625000D01*
X98475000Y-116250000D02*
X99750000Y-116250000D01*
X88800000Y-124800000D02*
X89225000Y-125225000D01*
D45*
X119588000Y-119000000D02*
X119588000Y-120075000D01*
D44*
X122288000Y-110125000D02*
X120125000Y-110125000D01*
X122288000Y-108175000D02*
X118825000Y-108175000D01*
D42*
X117125000Y-101375000D02*
X117250000Y-101250000D01*
D44*
X114712000Y-108825000D02*
X118175000Y-108825000D01*
X110175000Y-112750000D02*
X109250000Y-112750000D01*
X87675000Y-104425000D02*
X87750000Y-104500000D01*
D45*
X124750000Y-117450000D02*
X127000000Y-117450000D01*
D46*
X98475000Y-116250000D02*
X98475000Y-117750000D01*
D44*
X107089418Y-107660582D02*
X107000000Y-107750000D01*
X108006286Y-107660582D02*
X107089418Y-107660582D01*
X122288000Y-106225000D02*
X120775000Y-106225000D01*
X89225000Y-126750000D02*
X90500000Y-126750000D01*
X120125000Y-110125000D02*
X118500000Y-108500000D01*
D45*
X123500000Y-117450000D02*
X122500000Y-117450000D01*
D42*
X114712000Y-112075000D02*
X116825000Y-112075000D01*
D44*
X120775000Y-106225000D02*
X118500000Y-108500000D01*
D42*
X116825000Y-112075000D02*
X117000000Y-112250000D01*
D44*
X86250000Y-104425000D02*
X87675000Y-104425000D01*
D42*
X117250000Y-101250000D02*
X117250000Y-100500000D01*
D44*
X108006286Y-107660582D02*
X109427418Y-107660582D01*
X111288000Y-101400000D02*
X110600000Y-101400000D01*
D42*
X117250000Y-100500000D02*
X117538000Y-100212000D01*
X105000000Y-98325000D02*
X106175000Y-98325000D01*
D44*
X83000000Y-101250000D02*
X90250000Y-101250000D01*
D42*
X106175000Y-98325000D02*
X106250000Y-98250000D01*
D44*
X79747070Y-104502930D02*
X83000000Y-101250000D01*
X75591068Y-104502930D02*
X79747070Y-104502930D01*
X91750000Y-116250000D02*
X93850000Y-116250000D01*
X84425000Y-126750000D02*
X83000000Y-126750000D01*
D46*
X93850000Y-116250000D02*
X96925000Y-116250000D01*
X96925000Y-117750000D02*
X96925000Y-116250000D01*
D44*
X127913000Y-107500000D02*
X128288000Y-107875000D01*
X122288000Y-107525000D02*
X122313000Y-107500000D01*
X122313000Y-107500000D02*
X127913000Y-107500000D01*
D42*
X128288000Y-105975000D02*
X129775000Y-105975000D01*
D44*
X126375000Y-106875000D02*
X127275000Y-105975000D01*
X122288000Y-106875000D02*
X126375000Y-106875000D01*
D42*
X129775000Y-105975000D02*
X131625000Y-104125000D01*
D44*
X127275000Y-105975000D02*
X128288000Y-105975000D01*
X131625000Y-104125000D02*
X132688000Y-104125000D01*
X149137000Y-102675000D02*
X148500000Y-102675000D01*
X149674500Y-104900000D02*
X149674500Y-103212500D01*
X149674500Y-103212500D02*
X149137000Y-102675000D01*
X149150000Y-121400000D02*
X148538000Y-121400000D01*
X149750500Y-122000500D02*
X149150000Y-121400000D01*
X149750500Y-123650000D02*
X149750500Y-122000500D01*
D43*
X141250000Y-126500000D02*
X154500000Y-126500000D01*
D42*
X145150000Y-123650000D02*
X144538000Y-123038000D01*
D43*
X139888000Y-125138000D02*
X141250000Y-126500000D01*
D42*
X146825500Y-123650000D02*
X145150000Y-123650000D01*
X144538000Y-123038000D02*
X144538000Y-122125000D01*
D43*
X154500000Y-126500000D02*
X157000000Y-124000000D01*
D44*
X146788000Y-123612500D02*
X146825500Y-123650000D01*
D43*
X139888000Y-122875000D02*
X139888000Y-125138000D01*
D45*
X142625000Y-122125000D02*
X144538000Y-122125000D01*
D42*
X146788000Y-121425000D02*
X146788000Y-123612500D01*
D45*
X141875000Y-122875000D02*
X142625000Y-122125000D01*
D43*
X157000000Y-124000000D02*
X157000000Y-121580000D01*
D45*
X139888000Y-122875000D02*
X141875000Y-122875000D01*
D44*
X109448582Y-106110582D02*
X109463000Y-106125000D01*
X114712000Y-106875000D02*
X114712000Y-107525000D01*
X112837161Y-106875000D02*
X112738648Y-106776487D01*
X106750000Y-106250000D02*
X106889418Y-106110582D01*
X108006286Y-106110582D02*
X109448582Y-106110582D01*
X108006286Y-106110582D02*
X106889418Y-106110582D01*
X114712000Y-106875000D02*
X112837161Y-106875000D01*
X111113000Y-107625000D02*
X111113000Y-106125000D01*
X112925000Y-108175000D02*
X112375000Y-107625000D01*
X112375000Y-107625000D02*
X111113000Y-107625000D01*
X114712000Y-108175000D02*
X112925000Y-108175000D01*
D45*
X141625000Y-113625000D02*
X142425000Y-114425000D01*
X139888000Y-111612000D02*
X140500000Y-111000000D01*
X139888000Y-113625000D02*
X141625000Y-113625000D01*
X140500000Y-111000000D02*
X155000000Y-111000000D01*
X139888000Y-113625000D02*
X139888000Y-111612000D01*
X157000000Y-113000000D02*
X157000000Y-116500000D01*
X142425000Y-114425000D02*
X144538000Y-114425000D01*
D42*
X144538000Y-114425000D02*
X144538000Y-113712000D01*
X145000000Y-113250000D02*
X146825500Y-113250000D01*
D45*
X155000000Y-111000000D02*
X157000000Y-113000000D01*
D42*
X146788000Y-115375000D02*
X146788000Y-113287500D01*
X144538000Y-113712000D02*
X145000000Y-113250000D01*
D44*
X146788000Y-113287500D02*
X146825500Y-113250000D01*
D45*
X139888000Y-106638000D02*
X141250000Y-108000000D01*
X141625000Y-104125000D02*
X142375000Y-103375000D01*
D42*
X144538000Y-104288000D02*
X144538000Y-103375000D01*
D45*
X156750000Y-106500000D02*
X156750000Y-102750000D01*
D44*
X145150000Y-104900000D02*
X145075000Y-104825000D01*
D45*
X142375000Y-103375000D02*
X144538000Y-103375000D01*
D42*
X146749500Y-104900000D02*
X145150000Y-104900000D01*
D45*
X139888000Y-104125000D02*
X139888000Y-106638000D01*
X141250000Y-108000000D02*
X155250000Y-108000000D01*
D42*
X145150000Y-104900000D02*
X144538000Y-104288000D01*
D45*
X155250000Y-108000000D02*
X156750000Y-106500000D01*
X139888000Y-104125000D02*
X141625000Y-104125000D01*
D42*
X146750000Y-102675000D02*
X146750000Y-104899500D01*
D44*
X146750000Y-104899500D02*
X146749500Y-104900000D01*
D47*
X105000000Y-96675000D02*
X103575000Y-96675000D01*
D44*
X103575000Y-96675000D02*
X103500000Y-96750000D01*
D47*
X101462000Y-94770000D02*
X103020000Y-94770000D01*
X103500000Y-95250000D02*
X103500000Y-96600000D01*
X103020000Y-94770000D02*
X103500000Y-95250000D01*
D42*
X103500000Y-96600000D02*
X103575000Y-96675000D01*
D44*
X113775000Y-104275000D02*
X112788000Y-103288000D01*
X114712000Y-104275000D02*
X113775000Y-104275000D01*
X112788000Y-103288000D02*
X112788000Y-101450000D01*
X114712000Y-104925000D02*
X114712000Y-104275000D01*
X113325000Y-105575000D02*
X114712000Y-105575000D01*
X112500000Y-104000000D02*
X112500000Y-104750000D01*
X111063000Y-103125000D02*
X111625000Y-103125000D01*
X111625000Y-103125000D02*
X112500000Y-104000000D01*
X112500000Y-104750000D02*
X113325000Y-105575000D01*
X111375000Y-104625000D02*
X111063000Y-104625000D01*
X114712000Y-106225000D02*
X112975000Y-106225000D01*
X112975000Y-106225000D02*
X111375000Y-104625000D01*
X113225000Y-109475000D02*
X112875000Y-109125000D01*
X114712000Y-109475000D02*
X113225000Y-109475000D01*
X112875000Y-109125000D02*
X111775000Y-109125000D01*
X113375000Y-110125000D02*
X112875000Y-110625000D01*
X112875000Y-110625000D02*
X111800000Y-110625000D01*
X114712000Y-110125000D02*
X113375000Y-110125000D01*
X112500000Y-112750000D02*
X113000000Y-112250000D01*
X111825000Y-112750000D02*
X112500000Y-112750000D01*
X113000000Y-111500000D02*
X113725000Y-110775000D01*
X113725000Y-110775000D02*
X114712000Y-110775000D01*
X113000000Y-112250000D02*
X113000000Y-111500000D01*
X125950000Y-113450000D02*
X127250000Y-113450000D01*
X122288000Y-111425000D02*
X123925000Y-111425000D01*
X123925000Y-111425000D02*
X125950000Y-113450000D01*
X124025000Y-110775000D02*
X124800000Y-111550000D01*
D42*
X129500000Y-122250000D02*
X130125000Y-122875000D01*
X129500000Y-112250000D02*
X129500000Y-122250000D01*
D44*
X122288000Y-110775000D02*
X124025000Y-110775000D01*
D42*
X130125000Y-122875000D02*
X132688000Y-122875000D01*
X127250000Y-111550000D02*
X128800000Y-111550000D01*
X128800000Y-111550000D02*
X129500000Y-112250000D01*
D44*
X124800000Y-111550000D02*
X127250000Y-111550000D01*
D42*
X125000000Y-110200000D02*
X129200000Y-110200000D01*
D44*
X122288000Y-109475000D02*
X123225000Y-109475000D01*
X123225000Y-109475000D02*
X123950000Y-110200000D01*
D42*
X132625000Y-113625000D02*
X132688000Y-113625000D01*
D44*
X123950000Y-110200000D02*
X125000000Y-110200000D01*
D42*
X129200000Y-110200000D02*
X132625000Y-113625000D01*
D44*
X125000000Y-108300000D02*
X124200000Y-108300000D01*
X124200000Y-108300000D02*
X123675000Y-108825000D01*
X123675000Y-108825000D02*
X122288000Y-108825000D01*
X122288000Y-105575000D02*
X125125000Y-105575000D01*
D42*
X125250000Y-105700000D02*
X126300000Y-105700000D01*
D44*
X125125000Y-105575000D02*
X125250000Y-105700000D01*
D42*
X126300000Y-105700000D02*
X128250000Y-103750000D01*
X130375000Y-94875000D02*
X132588000Y-94875000D01*
X128250000Y-97000000D02*
X130375000Y-94875000D01*
X128250000Y-103750000D02*
X128250000Y-97000000D01*
D44*
X125250000Y-103800000D02*
X124125000Y-104925000D01*
X124125000Y-104925000D02*
X122288000Y-104925000D01*
X149750500Y-114749500D02*
X149150000Y-115350000D01*
X149150000Y-115350000D02*
X148538000Y-115350000D01*
X149750500Y-113250000D02*
X149750500Y-114749500D01*
X98500000Y-110000000D02*
X98500000Y-111875000D01*
X97599055Y-105849055D02*
X98000000Y-106250000D01*
X98500000Y-111875000D02*
X98450000Y-111925000D01*
X93122717Y-105849055D02*
X97599055Y-105849055D01*
X95925000Y-113575000D02*
X96950000Y-113575000D01*
D46*
X96950000Y-113575000D02*
X98450000Y-113575000D01*
D44*
X95650000Y-113850000D02*
X95925000Y-113575000D01*
X93850000Y-113850000D02*
X95650000Y-113850000D01*
D42*
X98450000Y-113575000D02*
X101675000Y-113575000D01*
D44*
X101675000Y-113575000D02*
X101750000Y-113500000D01*
X75591068Y-108991068D02*
X75600000Y-109000000D01*
X75591068Y-106152930D02*
X75591068Y-108991068D01*
X91200000Y-106862500D02*
X91200000Y-109000000D01*
X91312500Y-106750000D02*
X91312500Y-105750000D01*
X91312500Y-106750000D02*
X91200000Y-106862500D01*
X86400000Y-107400000D02*
X86250000Y-107250000D01*
X86400000Y-109000000D02*
X86400000Y-107400000D01*
X86250000Y-107250000D02*
X86250000Y-106075000D01*
D47*
X103520000Y-92230000D02*
X104225000Y-91525000D01*
X101462000Y-92230000D02*
X103520000Y-92230000D01*
X104225000Y-91525000D02*
X105250000Y-91525000D01*
D44*
X114513000Y-101375000D02*
X114513000Y-100987000D01*
X115038000Y-100462000D02*
X115038000Y-99587500D01*
X114513000Y-100987000D02*
X115038000Y-100462000D01*
D42*
X146749500Y-94500000D02*
X146749500Y-96624500D01*
X144538000Y-95675000D02*
X144538000Y-94962000D01*
D43*
X139788000Y-94875000D02*
X139788000Y-93212000D01*
D45*
X142175000Y-95675000D02*
X144538000Y-95675000D01*
D43*
X156750000Y-94000000D02*
X156750000Y-97670000D01*
X141500000Y-91500000D02*
X154250000Y-91500000D01*
X154250000Y-91500000D02*
X156750000Y-94000000D01*
D42*
X144538000Y-94962000D02*
X145000000Y-94500000D01*
D43*
X139788000Y-93212000D02*
X141500000Y-91500000D01*
D42*
X145000000Y-94500000D02*
X146749500Y-94500000D01*
D44*
X146749500Y-96624500D02*
X146750000Y-96625000D01*
D45*
X139788000Y-94875000D02*
X141375000Y-94875000D01*
X141375000Y-94875000D02*
X142175000Y-95675000D01*
D44*
X149337000Y-96625000D02*
X148500000Y-96625000D01*
X149674500Y-96287500D02*
X149337000Y-96625000D01*
X149674500Y-94500000D02*
X149674500Y-96287500D01*
X87675000Y-127925000D02*
X88000000Y-128250000D01*
X87675000Y-126750000D02*
X87675000Y-127925000D01*
X88000000Y-128250000D02*
X91750000Y-128250000D01*
X87600000Y-126675000D02*
X87675000Y-126750000D01*
X86075000Y-126750000D02*
X87675000Y-126750000D01*
X87600000Y-123500000D02*
X87600000Y-126675000D01*
X78000000Y-114500000D02*
X82250000Y-110250000D01*
X95250000Y-110250000D02*
X99250000Y-106250000D01*
X99250000Y-106250000D02*
X104750000Y-106250000D01*
X78000000Y-123500000D02*
X78000000Y-114500000D01*
X104750000Y-106250000D02*
X107875000Y-103125000D01*
X82250000Y-110250000D02*
X95250000Y-110250000D01*
X107875000Y-103125000D02*
X109513000Y-103125000D01*
X95925000Y-111925000D02*
X96950000Y-111925000D01*
X95450000Y-111450000D02*
X95925000Y-111925000D01*
X93850000Y-111450000D02*
X95450000Y-111450000D01*
X96000000Y-110750000D02*
X82750000Y-110750000D01*
X108125000Y-110625000D02*
X110250000Y-110625000D01*
X108000000Y-104625000D02*
X109513000Y-104625000D01*
X107125000Y-104625000D02*
X103500000Y-108250000D01*
X79200000Y-114300000D02*
X79200000Y-123500000D01*
X103500000Y-108250000D02*
X98500000Y-108250000D01*
X82750000Y-110750000D02*
X79200000Y-114300000D01*
X98500000Y-108250000D02*
X96000000Y-110750000D01*
X108000000Y-104625000D02*
X107125000Y-104625000D01*
X106250000Y-115250000D02*
X99500000Y-122000000D01*
X81350000Y-122000000D02*
X80400000Y-122950000D01*
X110225000Y-109125000D02*
X107375000Y-109125000D01*
X80400000Y-122950000D02*
X80400000Y-123500000D01*
X106250000Y-110250000D02*
X106250000Y-115250000D01*
X107375000Y-109125000D02*
X106250000Y-110250000D01*
X99500000Y-122000000D02*
X81350000Y-122000000D01*
D46*
X95250000Y-119850000D02*
X93850000Y-119850000D01*
X95500000Y-118650000D02*
X93850000Y-118650000D01*
D47*
X101462000Y-93500000D02*
X104975000Y-93500000D01*
G04 #@! TA.AperFunction,Conductor*
G36*
X120461971Y-104752381D02*
G01*
X120540618Y-104768024D01*
X120585308Y-104786535D01*
X120641626Y-104824166D01*
X120675833Y-104858373D01*
X120713462Y-104914688D01*
X120731976Y-104959387D01*
X120747617Y-105038019D01*
X120750000Y-105062210D01*
X120750000Y-112437789D01*
X120747617Y-112461980D01*
X120731976Y-112540612D01*
X120713462Y-112585311D01*
X120675836Y-112641623D01*
X120641623Y-112675836D01*
X120585311Y-112713462D01*
X120540612Y-112731976D01*
X120461980Y-112747617D01*
X120437789Y-112750000D01*
X116562211Y-112750000D01*
X116538020Y-112747617D01*
X116459387Y-112731976D01*
X116414689Y-112713462D01*
X116358373Y-112675833D01*
X116324166Y-112641626D01*
X116286535Y-112585308D01*
X116268024Y-112540618D01*
X116252381Y-112461971D01*
X116250000Y-112437789D01*
X116250000Y-105062210D01*
X116252381Y-105038029D01*
X116268025Y-104959379D01*
X116286534Y-104914693D01*
X116324168Y-104858370D01*
X116358370Y-104824168D01*
X116414693Y-104786534D01*
X116459379Y-104768025D01*
X116538028Y-104752381D01*
X116562211Y-104750000D01*
X120437789Y-104750000D01*
X120461971Y-104752381D01*
G37*
G04 #@! TD.AperFunction*
G04 #@! TA.AperFunction,Conductor*
G36*
X120961971Y-95502381D02*
G01*
X121040618Y-95518024D01*
X121085308Y-95536535D01*
X121141626Y-95574166D01*
X121175833Y-95608373D01*
X121213462Y-95664688D01*
X121231976Y-95709387D01*
X121247617Y-95788019D01*
X121250000Y-95812210D01*
X121250000Y-97687789D01*
X121247617Y-97711980D01*
X121231976Y-97790612D01*
X121213462Y-97835311D01*
X121175836Y-97891623D01*
X121141623Y-97925836D01*
X121085311Y-97963462D01*
X121040612Y-97981976D01*
X120961980Y-97997617D01*
X120937789Y-98000000D01*
X113750000Y-98000000D01*
X113750000Y-100187789D01*
X113747617Y-100211980D01*
X113731976Y-100290612D01*
X113713462Y-100335311D01*
X113675836Y-100391623D01*
X113641623Y-100425836D01*
X113585311Y-100463462D01*
X113540612Y-100481976D01*
X113461980Y-100497617D01*
X113437789Y-100500000D01*
X110562211Y-100500000D01*
X110538020Y-100497617D01*
X110459387Y-100481976D01*
X110414689Y-100463462D01*
X110358373Y-100425833D01*
X110324166Y-100391626D01*
X110286535Y-100335308D01*
X110268024Y-100290618D01*
X110252381Y-100211971D01*
X110250000Y-100187789D01*
X110250000Y-95812210D01*
X110252381Y-95788029D01*
X110268025Y-95709379D01*
X110286534Y-95664693D01*
X110324168Y-95608370D01*
X110358370Y-95574168D01*
X110414693Y-95536534D01*
X110459379Y-95518025D01*
X110538028Y-95502381D01*
X110562211Y-95500000D01*
X120937789Y-95500000D01*
X120961971Y-95502381D01*
G37*
G04 #@! TD.AperFunction*
G04 #@! TA.AperFunction,Conductor*
G36*
X149211971Y-116252381D02*
G01*
X149290618Y-116268024D01*
X149335308Y-116286535D01*
X149391626Y-116324166D01*
X149425833Y-116358373D01*
X149463462Y-116414688D01*
X149481976Y-116459387D01*
X149497617Y-116538019D01*
X149500000Y-116562210D01*
X149500000Y-117687789D01*
X149497617Y-117711980D01*
X149481976Y-117790612D01*
X149463462Y-117835311D01*
X149425836Y-117891623D01*
X149391623Y-117925836D01*
X149335311Y-117963462D01*
X149290612Y-117981976D01*
X149211980Y-117997617D01*
X149187789Y-118000000D01*
X147500000Y-118000000D01*
X147500000Y-119000000D01*
X149187789Y-119000000D01*
X149211971Y-119002381D01*
X149290618Y-119018024D01*
X149335308Y-119036535D01*
X149391626Y-119074166D01*
X149425833Y-119108373D01*
X149463462Y-119164688D01*
X149481976Y-119209387D01*
X149497617Y-119288019D01*
X149500000Y-119312210D01*
X149500000Y-120437789D01*
X149497617Y-120461980D01*
X149481976Y-120540612D01*
X149480250Y-120543909D01*
X149480367Y-120547632D01*
X149463462Y-120585311D01*
X149425836Y-120641623D01*
X149391623Y-120675835D01*
X149363688Y-120694501D01*
X149335311Y-120713462D01*
X149290612Y-120731976D01*
X149211980Y-120747617D01*
X149187789Y-120750000D01*
X149138945Y-120750000D01*
X149132128Y-120747998D01*
X149125131Y-120749228D01*
X149099043Y-120738283D01*
X149071906Y-120730315D01*
X149064018Y-120724802D01*
X149047975Y-120712636D01*
X149047976Y-120712636D01*
X148913588Y-120659640D01*
X148870242Y-120654435D01*
X148829144Y-120649500D01*
X148246856Y-120649500D01*
X148208841Y-120654065D01*
X148162411Y-120659640D01*
X148028023Y-120712636D01*
X148011982Y-120724802D01*
X147946671Y-120749627D01*
X147937055Y-120750000D01*
X147352435Y-120750000D01*
X147306919Y-120738076D01*
X147305866Y-120740748D01*
X147163588Y-120684640D01*
X147120242Y-120679435D01*
X147079144Y-120674500D01*
X146496856Y-120674500D01*
X146458841Y-120679065D01*
X146412411Y-120684640D01*
X146270134Y-120740748D01*
X146269080Y-120738076D01*
X146223565Y-120750000D01*
X143812211Y-120750000D01*
X143788020Y-120747617D01*
X143709387Y-120731976D01*
X143664689Y-120713462D01*
X143608373Y-120675833D01*
X143574166Y-120641626D01*
X143536535Y-120585308D01*
X143518024Y-120540618D01*
X143502381Y-120461971D01*
X143500000Y-120437789D01*
X143500000Y-116562210D01*
X143502381Y-116538029D01*
X143518025Y-116459379D01*
X143536534Y-116414693D01*
X143574168Y-116358370D01*
X143608370Y-116324168D01*
X143664693Y-116286534D01*
X143709379Y-116268025D01*
X143788028Y-116252381D01*
X143812211Y-116250000D01*
X149187789Y-116250000D01*
X149211971Y-116252381D01*
G37*
G04 #@! TD.AperFunction*
G04 #@! TA.AperFunction,Conductor*
G36*
X123365784Y-111833779D02*
G01*
X123374826Y-111836434D01*
X123426784Y-111866949D01*
X123431578Y-111871658D01*
X123447784Y-111891225D01*
X123456675Y-111904532D01*
X123468132Y-111925966D01*
X123477087Y-111947585D01*
X123477303Y-111948105D01*
X123478534Y-111959556D01*
X123484359Y-111971367D01*
X123496427Y-112032038D01*
X123498212Y-112044069D01*
X123499402Y-112056145D01*
X123500000Y-112068297D01*
X123500000Y-114500000D01*
X127931702Y-114500000D01*
X127943851Y-114500597D01*
X127955898Y-114501783D01*
X127967939Y-114503568D01*
X128028642Y-114515642D01*
X128051902Y-114522698D01*
X128074023Y-114531860D01*
X128095461Y-114543319D01*
X128131472Y-114567381D01*
X128150262Y-114582802D01*
X128167196Y-114599736D01*
X128182617Y-114618526D01*
X128206675Y-114654531D01*
X128218134Y-114675969D01*
X128227303Y-114698105D01*
X128234359Y-114721367D01*
X128246427Y-114782038D01*
X128248212Y-114794069D01*
X128249402Y-114806145D01*
X128250000Y-114818305D01*
X128250000Y-116181693D01*
X128249402Y-116193853D01*
X128248212Y-116205929D01*
X128246427Y-116217960D01*
X128234359Y-116278631D01*
X128227302Y-116301894D01*
X128218133Y-116324029D01*
X128206676Y-116345464D01*
X128182619Y-116381469D01*
X128167197Y-116400261D01*
X128150261Y-116417197D01*
X128131469Y-116432619D01*
X128095464Y-116456676D01*
X128074029Y-116468133D01*
X128051894Y-116477302D01*
X128028631Y-116484359D01*
X127967960Y-116496427D01*
X127955929Y-116498212D01*
X127943853Y-116499402D01*
X127931693Y-116500000D01*
X121568307Y-116500000D01*
X121556148Y-116499402D01*
X121544071Y-116498212D01*
X121532039Y-116496427D01*
X121471369Y-116484359D01*
X121448108Y-116477304D01*
X121425969Y-116468134D01*
X121404530Y-116456674D01*
X121368525Y-116432616D01*
X121349735Y-116417195D01*
X121332802Y-116400262D01*
X121317381Y-116381472D01*
X121293319Y-116345461D01*
X121281859Y-116324020D01*
X121272698Y-116301902D01*
X121265642Y-116278642D01*
X121253568Y-116217939D01*
X121251783Y-116205898D01*
X121250597Y-116193851D01*
X121250000Y-116181702D01*
X121250000Y-112068297D01*
X121250597Y-112056147D01*
X121251784Y-112044091D01*
X121253544Y-112032180D01*
X121253572Y-112032038D01*
X121253653Y-112031628D01*
X121265422Y-111998216D01*
X121271856Y-111985918D01*
X121320375Y-111935642D01*
X121388353Y-111919578D01*
X121398374Y-111920115D01*
X121441821Y-111930502D01*
X121480509Y-111947585D01*
X121505635Y-111950500D01*
X123070364Y-111950499D01*
X123070379Y-111950499D01*
X123070478Y-111950492D01*
X123071233Y-111950398D01*
X123088393Y-111948408D01*
X123094111Y-111948078D01*
X123094725Y-111947978D01*
X123097363Y-111946758D01*
X123198265Y-111902206D01*
X123226046Y-111874424D01*
X123254288Y-111853280D01*
X123271424Y-111843923D01*
X123339692Y-111829072D01*
X123365784Y-111833779D01*
G37*
G04 #@! TD.AperFunction*
G04 #@! TA.AperFunction,Conductor*
G36*
X105961971Y-82502381D02*
G01*
X106040618Y-82518024D01*
X106085308Y-82536535D01*
X106141626Y-82574166D01*
X106175833Y-82608373D01*
X106213462Y-82664688D01*
X106231976Y-82709387D01*
X106247617Y-82788019D01*
X106250000Y-82812210D01*
X106250000Y-90187789D01*
X106247617Y-90211980D01*
X106231976Y-90290612D01*
X106213462Y-90335311D01*
X106175836Y-90391623D01*
X106141623Y-90425836D01*
X106085311Y-90463462D01*
X106040612Y-90481976D01*
X105961980Y-90497617D01*
X105937789Y-90500000D01*
X103250000Y-90500000D01*
X103250000Y-91187789D01*
X103247617Y-91211980D01*
X103231976Y-91290612D01*
X103213462Y-91335311D01*
X103175836Y-91391623D01*
X103141623Y-91425836D01*
X103085311Y-91463462D01*
X103040612Y-91481976D01*
X102961980Y-91497617D01*
X102937789Y-91500000D01*
X100812211Y-91500000D01*
X100788020Y-91497617D01*
X100709387Y-91481976D01*
X100664689Y-91463462D01*
X100608373Y-91425833D01*
X100574166Y-91391626D01*
X100536535Y-91335308D01*
X100518024Y-91290618D01*
X100502381Y-91211971D01*
X100500000Y-91187789D01*
X100500000Y-82812210D01*
X100502381Y-82788029D01*
X100518025Y-82709379D01*
X100536534Y-82664693D01*
X100574168Y-82608370D01*
X100608370Y-82574168D01*
X100664693Y-82536534D01*
X100709379Y-82518025D01*
X100788028Y-82502381D01*
X100812211Y-82500000D01*
X105937789Y-82500000D01*
X105961971Y-82502381D01*
G37*
G04 #@! TD.AperFunction*
G04 #@! TA.AperFunction,Conductor*
G36*
X123211971Y-119002381D02*
G01*
X123290618Y-119018024D01*
X123335308Y-119036535D01*
X123391626Y-119074166D01*
X123425833Y-119108373D01*
X123463462Y-119164688D01*
X123481976Y-119209387D01*
X123497617Y-119288019D01*
X123500000Y-119312210D01*
X123500000Y-124437789D01*
X123497617Y-124461980D01*
X123481976Y-124540612D01*
X123463462Y-124585311D01*
X123425836Y-124641623D01*
X123391623Y-124675836D01*
X123335311Y-124713462D01*
X123290612Y-124731976D01*
X123211980Y-124747617D01*
X123187789Y-124750000D01*
X116562211Y-124750000D01*
X116538020Y-124747617D01*
X116459387Y-124731976D01*
X116414689Y-124713462D01*
X116358373Y-124675833D01*
X116324166Y-124641626D01*
X116286535Y-124585308D01*
X116268024Y-124540618D01*
X116252381Y-124461971D01*
X116250000Y-124437789D01*
X116250000Y-119312210D01*
X116252381Y-119288029D01*
X116268025Y-119209379D01*
X116286534Y-119164693D01*
X116324168Y-119108370D01*
X116358370Y-119074168D01*
X116414693Y-119036534D01*
X116459379Y-119018025D01*
X116538028Y-119002381D01*
X116562211Y-119000000D01*
X123187789Y-119000000D01*
X123211971Y-119002381D01*
G37*
G04 #@! TD.AperFunction*
G04 #@! TA.AperFunction,Conductor*
G36*
X97561971Y-83002381D02*
G01*
X97602346Y-83010412D01*
X97647043Y-83028927D01*
X97670913Y-83044877D01*
X97705122Y-83079086D01*
X97721072Y-83102956D01*
X97739588Y-83147655D01*
X97747617Y-83188020D01*
X97750000Y-83212210D01*
X97750000Y-88287789D01*
X97747617Y-88311982D01*
X97739588Y-88352344D01*
X97721072Y-88397043D01*
X97705122Y-88420913D01*
X97670913Y-88455122D01*
X97647043Y-88471072D01*
X97602344Y-88489588D01*
X97585841Y-88492870D01*
X97561978Y-88497617D01*
X97537789Y-88500000D01*
X82962211Y-88500000D01*
X82938020Y-88497617D01*
X82922744Y-88494578D01*
X82897656Y-88489588D01*
X82852956Y-88471072D01*
X82829086Y-88455122D01*
X82794877Y-88420913D01*
X82778927Y-88397043D01*
X82760412Y-88352346D01*
X82752381Y-88311971D01*
X82750000Y-88287789D01*
X82750000Y-83212210D01*
X82752381Y-83188029D01*
X82760412Y-83147651D01*
X82778927Y-83102956D01*
X82794877Y-83079086D01*
X82829086Y-83044877D01*
X82852956Y-83028927D01*
X82897653Y-83010412D01*
X82938027Y-83002381D01*
X82962211Y-83000000D01*
X97537789Y-83000000D01*
X97561971Y-83002381D01*
G37*
G04 #@! TD.AperFunction*
G04 #@! TA.AperFunction,Conductor*
G36*
X124461971Y-85502381D02*
G01*
X124540618Y-85518024D01*
X124585308Y-85536535D01*
X124641626Y-85574166D01*
X124675833Y-85608373D01*
X124713462Y-85664688D01*
X124731976Y-85709387D01*
X124747617Y-85788019D01*
X124750000Y-85812210D01*
X124750000Y-90937789D01*
X124747617Y-90961980D01*
X124731976Y-91040612D01*
X124713462Y-91085311D01*
X124675836Y-91141623D01*
X124641623Y-91175836D01*
X124585311Y-91213462D01*
X124540612Y-91231976D01*
X124461980Y-91247617D01*
X124437789Y-91250000D01*
X117812211Y-91250000D01*
X117788020Y-91247617D01*
X117709387Y-91231976D01*
X117664689Y-91213462D01*
X117608373Y-91175833D01*
X117574166Y-91141626D01*
X117536535Y-91085308D01*
X117518024Y-91040618D01*
X117502381Y-90961971D01*
X117500000Y-90937789D01*
X117500000Y-85812210D01*
X117502381Y-85788029D01*
X117518025Y-85709379D01*
X117536534Y-85664693D01*
X117574168Y-85608370D01*
X117608370Y-85574168D01*
X117664693Y-85536534D01*
X117709379Y-85518025D01*
X117788028Y-85502381D01*
X117812211Y-85500000D01*
X124437789Y-85500000D01*
X124461971Y-85502381D01*
G37*
G04 #@! TD.AperFunction*
G04 #@! TA.AperFunction,Conductor*
G36*
X148961971Y-97402381D02*
G01*
X149040618Y-97418024D01*
X149085308Y-97436535D01*
X149141626Y-97474166D01*
X149175833Y-97508373D01*
X149213462Y-97564688D01*
X149231976Y-97609387D01*
X149247617Y-97688019D01*
X149250000Y-97712210D01*
X149250000Y-98837789D01*
X149247617Y-98861980D01*
X149231976Y-98940612D01*
X149213462Y-98985311D01*
X149175836Y-99041623D01*
X149141623Y-99075836D01*
X149085311Y-99113462D01*
X149040612Y-99131976D01*
X148961980Y-99147617D01*
X148937789Y-99150000D01*
X147500000Y-99150000D01*
X147500000Y-100150000D01*
X148937789Y-100150000D01*
X148961971Y-100152381D01*
X149040618Y-100168024D01*
X149085308Y-100186535D01*
X149141626Y-100224166D01*
X149175833Y-100258373D01*
X149213462Y-100314688D01*
X149231976Y-100359387D01*
X149247617Y-100438019D01*
X149250000Y-100462210D01*
X149250000Y-101587789D01*
X149247617Y-101611980D01*
X149231976Y-101690612D01*
X149213462Y-101735311D01*
X149175836Y-101791623D01*
X149141623Y-101825836D01*
X149085311Y-101863462D01*
X149040612Y-101881976D01*
X148961980Y-101897617D01*
X148937789Y-101900000D01*
X143562211Y-101900000D01*
X143538020Y-101897617D01*
X143459387Y-101881976D01*
X143414689Y-101863462D01*
X143358373Y-101825833D01*
X143324166Y-101791626D01*
X143286535Y-101735308D01*
X143268024Y-101690618D01*
X143252381Y-101611971D01*
X143250000Y-101587789D01*
X143250000Y-97712210D01*
X143252381Y-97688029D01*
X143268025Y-97609379D01*
X143286534Y-97564693D01*
X143324168Y-97508370D01*
X143358370Y-97474168D01*
X143414693Y-97436534D01*
X143459379Y-97418025D01*
X143538028Y-97402381D01*
X143562211Y-97400000D01*
X148937789Y-97400000D01*
X148961971Y-97402381D01*
G37*
G04 #@! TD.AperFunction*
G04 #@! TA.AperFunction,Conductor*
G36*
X108193851Y-80000597D02*
G01*
X108205898Y-80001783D01*
X108217939Y-80003568D01*
X108278642Y-80015642D01*
X108301902Y-80022698D01*
X108324023Y-80031860D01*
X108345461Y-80043319D01*
X108381472Y-80067381D01*
X108400262Y-80082802D01*
X108417196Y-80099736D01*
X108432617Y-80118526D01*
X108456675Y-80154531D01*
X108468134Y-80175969D01*
X108477303Y-80198105D01*
X108484359Y-80221367D01*
X108496427Y-80282038D01*
X108498212Y-80294069D01*
X108499402Y-80306145D01*
X108500000Y-80318305D01*
X108500000Y-99681693D01*
X108499402Y-99693853D01*
X108498212Y-99705929D01*
X108496427Y-99717960D01*
X108484359Y-99778631D01*
X108477302Y-99801894D01*
X108468133Y-99824029D01*
X108456676Y-99845464D01*
X108432619Y-99881469D01*
X108417197Y-99900261D01*
X108400261Y-99917197D01*
X108381469Y-99932619D01*
X108345464Y-99956676D01*
X108324029Y-99968133D01*
X108301894Y-99977302D01*
X108278631Y-99984359D01*
X108217960Y-99996427D01*
X108205929Y-99998212D01*
X108193853Y-99999402D01*
X108181693Y-100000000D01*
X97568307Y-100000000D01*
X97556148Y-99999402D01*
X97544071Y-99998212D01*
X97532039Y-99996427D01*
X97471369Y-99984359D01*
X97448108Y-99977304D01*
X97425969Y-99968134D01*
X97404530Y-99956674D01*
X97368525Y-99932616D01*
X97349735Y-99917195D01*
X97332802Y-99900262D01*
X97317381Y-99881472D01*
X97293319Y-99845461D01*
X97281859Y-99824020D01*
X97272698Y-99801902D01*
X97265642Y-99778642D01*
X97253568Y-99717939D01*
X97251783Y-99705898D01*
X97250597Y-99693851D01*
X97250000Y-99681702D01*
X97250000Y-93966520D01*
X97259440Y-93919066D01*
X97264219Y-93907528D01*
X97264220Y-93907522D01*
X97264223Y-93907517D01*
X97281606Y-93850213D01*
X97297247Y-93771581D01*
X97301645Y-93741929D01*
X97304028Y-93717738D01*
X97305500Y-93687789D01*
X97305500Y-91927210D01*
X97304028Y-91897261D01*
X97301645Y-91873070D01*
X97297247Y-91843418D01*
X97281606Y-91764786D01*
X97264223Y-91707482D01*
X97259436Y-91695926D01*
X97250000Y-91648478D01*
X97250000Y-91500000D01*
X97184738Y-91500000D01*
X97117699Y-91480315D01*
X97106073Y-91471853D01*
X97061359Y-91435157D01*
X97061355Y-91435154D01*
X97061354Y-91435153D01*
X97005036Y-91397522D01*
X97005035Y-91397521D01*
X97005033Y-91397520D01*
X96960049Y-91373475D01*
X96952217Y-91369289D01*
X96942091Y-91365095D01*
X96907530Y-91350779D01*
X96905671Y-91350215D01*
X96850215Y-91333393D01*
X96850210Y-91333392D01*
X96850209Y-91333391D01*
X96771564Y-91317749D01*
X96741931Y-91313354D01*
X96741889Y-91313349D01*
X96717731Y-91310970D01*
X96706082Y-91310398D01*
X96687789Y-91309500D01*
X96687778Y-91309500D01*
X92562222Y-91309500D01*
X92562211Y-91309500D01*
X92544880Y-91310351D01*
X92532269Y-91310970D01*
X92508116Y-91313348D01*
X92508099Y-91313350D01*
X92508094Y-91313351D01*
X92498103Y-91314832D01*
X92478439Y-91317749D01*
X92399783Y-91333394D01*
X92399781Y-91333394D01*
X92342480Y-91350776D01*
X92342467Y-91350781D01*
X92297796Y-91369283D01*
X92297777Y-91369292D01*
X92244969Y-91397517D01*
X92188645Y-91435152D01*
X92188644Y-91435153D01*
X92188643Y-91435154D01*
X92143924Y-91471854D01*
X92079617Y-91499166D01*
X92065261Y-91500000D01*
X92000000Y-91500000D01*
X92000000Y-91648472D01*
X91990563Y-91695921D01*
X91985782Y-91707464D01*
X91985780Y-91707469D01*
X91968394Y-91764785D01*
X91968393Y-91764786D01*
X91952746Y-91843456D01*
X91948353Y-91873078D01*
X91948348Y-91873119D01*
X91945971Y-91897256D01*
X91945971Y-91897261D01*
X91945970Y-91897273D01*
X91944500Y-91927210D01*
X91944500Y-91927221D01*
X91944500Y-92571597D01*
X91924815Y-92638636D01*
X91908180Y-92659278D01*
X91902766Y-92664693D01*
X91900256Y-92667203D01*
X91881469Y-92682619D01*
X91845464Y-92706676D01*
X91824029Y-92718133D01*
X91801894Y-92727302D01*
X91778631Y-92734359D01*
X91717960Y-92746427D01*
X91705929Y-92748212D01*
X91693853Y-92749402D01*
X91681693Y-92750000D01*
X83068307Y-92750000D01*
X83056148Y-92749402D01*
X83044071Y-92748212D01*
X83032039Y-92746427D01*
X82971369Y-92734359D01*
X82948108Y-92727304D01*
X82925969Y-92718134D01*
X82904530Y-92706674D01*
X82868525Y-92682616D01*
X82849735Y-92667195D01*
X82832802Y-92650262D01*
X82817381Y-92631472D01*
X82796173Y-92599733D01*
X82793318Y-92595460D01*
X82781859Y-92574020D01*
X82780855Y-92571597D01*
X82772698Y-92551902D01*
X82765642Y-92528642D01*
X82753568Y-92467939D01*
X82751783Y-92455898D01*
X82750597Y-92443851D01*
X82750000Y-92431702D01*
X82750000Y-89318297D01*
X82750597Y-89306147D01*
X82751783Y-89294101D01*
X82753568Y-89282061D01*
X82765642Y-89221357D01*
X82772699Y-89198095D01*
X82781862Y-89175973D01*
X82793316Y-89154541D01*
X82817388Y-89118516D01*
X82832799Y-89099738D01*
X82849738Y-89082799D01*
X82868516Y-89067388D01*
X82904541Y-89043316D01*
X82925970Y-89031862D01*
X82948104Y-89022695D01*
X82971347Y-89015644D01*
X83032068Y-89003566D01*
X83044089Y-89001784D01*
X83056147Y-89000596D01*
X83068297Y-89000000D01*
X98250000Y-89000000D01*
X98250000Y-83505135D01*
X100149500Y-83505135D01*
X100149500Y-83520601D01*
X100149500Y-86994849D01*
X100149502Y-86994885D01*
X100152414Y-87019993D01*
X100152547Y-87020441D01*
X100153608Y-87022695D01*
X100183934Y-87091376D01*
X100194500Y-87141463D01*
X100194500Y-91187789D01*
X100195398Y-91206082D01*
X100195970Y-91217731D01*
X100198349Y-91241889D01*
X100198354Y-91241931D01*
X100202749Y-91271564D01*
X100218391Y-91350209D01*
X100218392Y-91350210D01*
X100218393Y-91350215D01*
X100232743Y-91397522D01*
X100235778Y-91407527D01*
X100240560Y-91419071D01*
X100250000Y-91466526D01*
X100250000Y-91500000D01*
X100250000Y-95750000D01*
X102431702Y-95750000D01*
X102443851Y-95750597D01*
X102455898Y-95751783D01*
X102467939Y-95753568D01*
X102528642Y-95765642D01*
X102551902Y-95772698D01*
X102574023Y-95781860D01*
X102595461Y-95793319D01*
X102631472Y-95817381D01*
X102650262Y-95832802D01*
X102667196Y-95849736D01*
X102682617Y-95868526D01*
X102706675Y-95904531D01*
X102718134Y-95925969D01*
X102727303Y-95948105D01*
X102734359Y-95971367D01*
X102746427Y-96032038D01*
X102748212Y-96044069D01*
X102749402Y-96056145D01*
X102750000Y-96068305D01*
X102750000Y-98750000D01*
X104188330Y-98750000D01*
X104223265Y-98755022D01*
X104245086Y-98761430D01*
X104294636Y-98789644D01*
X104297297Y-98792121D01*
X104312076Y-98808572D01*
X104367451Y-98882543D01*
X104367453Y-98882545D01*
X104367455Y-98882547D01*
X104482664Y-98968793D01*
X104482671Y-98968797D01*
X104527618Y-98985561D01*
X104617517Y-99019091D01*
X104677127Y-99025500D01*
X105322872Y-99025499D01*
X105382483Y-99019091D01*
X105517331Y-98968796D01*
X105632546Y-98882546D01*
X105632551Y-98882538D01*
X105638820Y-98876272D01*
X105639705Y-98877157D01*
X105652320Y-98864509D01*
X105670528Y-98850879D01*
X105722830Y-98828115D01*
X105726412Y-98827469D01*
X105748420Y-98825500D01*
X106053190Y-98825500D01*
X106069365Y-98826559D01*
X106085362Y-98828665D01*
X106101246Y-98831825D01*
X106106823Y-98833319D01*
X106170943Y-98850500D01*
X106170945Y-98850500D01*
X106329055Y-98850500D01*
X106329057Y-98850500D01*
X106481784Y-98809577D01*
X106542066Y-98774772D01*
X106571964Y-98762388D01*
X106602437Y-98754223D01*
X106634523Y-98750000D01*
X106750000Y-98750000D01*
X106750000Y-98634526D01*
X106754225Y-98602434D01*
X106762388Y-98571968D01*
X106774772Y-98542066D01*
X106809577Y-98481784D01*
X106850500Y-98329057D01*
X106850500Y-98170943D01*
X106809577Y-98018216D01*
X106774772Y-97957932D01*
X106762387Y-97928029D01*
X106754224Y-97897562D01*
X106750000Y-97865473D01*
X106750000Y-97500000D01*
X106450000Y-97500000D01*
X106068307Y-97500000D01*
X106056148Y-97499402D01*
X106044071Y-97498212D01*
X106032039Y-97496427D01*
X105971369Y-97484359D01*
X105948108Y-97477304D01*
X105925969Y-97468134D01*
X105904530Y-97456674D01*
X105868525Y-97432616D01*
X105849735Y-97417195D01*
X105832802Y-97400262D01*
X105827980Y-97391431D01*
X105817381Y-97381472D01*
X105793319Y-97345461D01*
X105781859Y-97324020D01*
X105772698Y-97301902D01*
X105765642Y-97278642D01*
X105753568Y-97217939D01*
X105751783Y-97205898D01*
X105750597Y-97193851D01*
X105750000Y-97181702D01*
X105750000Y-97067137D01*
X105751969Y-97045126D01*
X105755848Y-97023621D01*
X105761694Y-97002314D01*
X105769091Y-96982483D01*
X105775500Y-96922873D01*
X105775499Y-96427128D01*
X105769091Y-96367517D01*
X105761693Y-96347683D01*
X105755848Y-96326373D01*
X105751970Y-96304877D01*
X105750000Y-96282862D01*
X105750000Y-92818297D01*
X105750597Y-92806147D01*
X105751783Y-92794101D01*
X105753568Y-92782061D01*
X105763530Y-92731976D01*
X105765643Y-92721352D01*
X105772699Y-92698095D01*
X105781862Y-92675973D01*
X105793316Y-92654541D01*
X105817388Y-92618516D01*
X105832799Y-92599738D01*
X105849738Y-92582799D01*
X105868516Y-92567388D01*
X105904541Y-92543316D01*
X105925970Y-92531862D01*
X105948104Y-92522695D01*
X105971347Y-92515644D01*
X106032068Y-92503566D01*
X106044089Y-92501784D01*
X106056147Y-92500596D01*
X106068297Y-92500000D01*
X106500000Y-92500000D01*
X106500000Y-90466520D01*
X106509440Y-90419066D01*
X106514219Y-90407528D01*
X106514220Y-90407522D01*
X106514223Y-90407517D01*
X106531606Y-90350213D01*
X106547247Y-90271581D01*
X106551645Y-90241929D01*
X106554028Y-90217738D01*
X106555500Y-90187789D01*
X106555500Y-82812210D01*
X106554028Y-82782261D01*
X106551645Y-82758070D01*
X106547247Y-82728418D01*
X106531606Y-82649786D01*
X106514223Y-82592482D01*
X106509436Y-82580926D01*
X106500000Y-82533478D01*
X106500000Y-82250000D01*
X106216527Y-82250000D01*
X106169075Y-82240561D01*
X106157530Y-82235779D01*
X106157520Y-82235776D01*
X106100215Y-82218393D01*
X106100210Y-82218392D01*
X106100209Y-82218391D01*
X106021564Y-82202749D01*
X105991931Y-82198354D01*
X105991889Y-82198349D01*
X105967731Y-82195970D01*
X105956082Y-82195398D01*
X105937789Y-82194500D01*
X105937778Y-82194500D01*
X100812222Y-82194500D01*
X100812211Y-82194500D01*
X100794880Y-82195351D01*
X100782269Y-82195970D01*
X100758116Y-82198348D01*
X100758099Y-82198350D01*
X100758094Y-82198351D01*
X100748103Y-82199832D01*
X100728439Y-82202749D01*
X100649783Y-82218394D01*
X100649781Y-82218394D01*
X100592480Y-82235776D01*
X100592469Y-82235780D01*
X100580922Y-82240563D01*
X100533474Y-82250000D01*
X100250000Y-82250000D01*
X100250000Y-82533472D01*
X100240563Y-82580921D01*
X100235782Y-82592464D01*
X100235780Y-82592469D01*
X100218394Y-82649785D01*
X100218393Y-82649786D01*
X100202746Y-82728456D01*
X100198353Y-82758078D01*
X100198348Y-82758119D01*
X100195971Y-82782256D01*
X100195971Y-82782261D01*
X100195970Y-82782273D01*
X100194500Y-82812210D01*
X100194500Y-82812221D01*
X100194500Y-83358536D01*
X100194206Y-83359929D01*
X100194477Y-83360922D01*
X100188783Y-83395753D01*
X100186713Y-83402328D01*
X100152415Y-83480009D01*
X100149500Y-83505135D01*
X98250000Y-83505135D01*
X98250000Y-82500000D01*
X97950000Y-82500000D01*
X83068307Y-82500000D01*
X83056148Y-82499402D01*
X83044071Y-82498212D01*
X83032039Y-82496427D01*
X82971369Y-82484359D01*
X82948108Y-82477304D01*
X82925969Y-82468134D01*
X82904530Y-82456674D01*
X82868525Y-82432616D01*
X82849735Y-82417195D01*
X82832802Y-82400262D01*
X82817381Y-82381472D01*
X82793319Y-82345461D01*
X82781859Y-82324020D01*
X82772698Y-82301902D01*
X82765642Y-82278642D01*
X82753568Y-82217939D01*
X82751783Y-82205898D01*
X82750597Y-82193851D01*
X82750000Y-82181702D01*
X82750000Y-80318297D01*
X82750597Y-80306147D01*
X82751783Y-80294101D01*
X82753568Y-80282061D01*
X82753573Y-80282038D01*
X82765643Y-80221352D01*
X82772699Y-80198095D01*
X82781862Y-80175973D01*
X82793316Y-80154541D01*
X82817388Y-80118516D01*
X82832802Y-80099736D01*
X82849738Y-80082799D01*
X82868516Y-80067388D01*
X82904541Y-80043316D01*
X82925970Y-80031862D01*
X82948104Y-80022695D01*
X82971347Y-80015644D01*
X83032068Y-80003566D01*
X83044089Y-80001784D01*
X83056147Y-80000596D01*
X83068297Y-80000000D01*
X108181702Y-80000000D01*
X108193851Y-80000597D01*
G37*
G04 #@! TD.AperFunction*
G04 #@! TA.AperFunction,Conductor*
G36*
X96711971Y-91617381D02*
G01*
X96790618Y-91633024D01*
X96835308Y-91651535D01*
X96891626Y-91689166D01*
X96925833Y-91723373D01*
X96963462Y-91779688D01*
X96981976Y-91824387D01*
X96997617Y-91903019D01*
X97000000Y-91927210D01*
X97000000Y-93687789D01*
X96997617Y-93711980D01*
X96981976Y-93790612D01*
X96963462Y-93835311D01*
X96925836Y-93891623D01*
X96891623Y-93925836D01*
X96835311Y-93963462D01*
X96790612Y-93981976D01*
X96711980Y-93997617D01*
X96687789Y-94000000D01*
X94000000Y-94000000D01*
X94000000Y-95302789D01*
X93997617Y-95326980D01*
X93981976Y-95405612D01*
X93963462Y-95450311D01*
X93925836Y-95506623D01*
X93891623Y-95540836D01*
X93835311Y-95578462D01*
X93790612Y-95596976D01*
X93711980Y-95612617D01*
X93687789Y-95615000D01*
X83062211Y-95615000D01*
X83038020Y-95612617D01*
X82959387Y-95596976D01*
X82914689Y-95578462D01*
X82858373Y-95540833D01*
X82824166Y-95506626D01*
X82786535Y-95450308D01*
X82768024Y-95405618D01*
X82752381Y-95326971D01*
X82750000Y-95302789D01*
X82750000Y-93812210D01*
X82752381Y-93788029D01*
X82768025Y-93709379D01*
X82786534Y-93664693D01*
X82824168Y-93608370D01*
X82858370Y-93574168D01*
X82914693Y-93536534D01*
X82959379Y-93518025D01*
X83038028Y-93502381D01*
X83062211Y-93500000D01*
X92250000Y-93500000D01*
X92250000Y-91927210D01*
X92252381Y-91903029D01*
X92268025Y-91824379D01*
X92286534Y-91779693D01*
X92324168Y-91723370D01*
X92358370Y-91689168D01*
X92414693Y-91651534D01*
X92459379Y-91633025D01*
X92538028Y-91617381D01*
X92562211Y-91615000D01*
X96687789Y-91615000D01*
X96711971Y-91617381D01*
G37*
G04 #@! TD.AperFunction*
M02*
