M48
; DRILL file KiCad 10.0.5 date 2026-10-08T11:44:56
; FORMAT={-:-/ absolute / metric / decimal}
; #@! TF.CreationDate,2026-10-08T11:44:56+02:00
; #@! TF.GenerationSoftware,Kicad,Pcbnew,10.0.5
; #@! TF.FileFunction,MixedPlating,1,2
FMAT,2
METRIC
; #@! TA.AperFunction,Plated,PTH,ViaDrill
T1C0.300
; #@! TA.AperFunction,Plated,PTH,ComponentDrill
T2C0.635
; #@! TA.AperFunction,Plated,PTH,ComponentDrill
T3C1.300
; #@! TA.AperFunction,Plated,PTH,ComponentDrill
T4C1.900
%
G90
G05
T1
X73.25Y-106.5
X73.515Y-94.55
X76.515Y-99.25
X83.0Y-126.75
X83.75Y-84.0
X83.75Y-86.5
X83.75Y-91.0
X84.75Y-86.5
X85.0Y-91.0
X87.75Y-104.5
X88.0Y-91.0
X88.25Y-84.75
X88.25Y-86.5
X89.25Y-84.75
X89.25Y-86.5
X89.25Y-91.0
X89.25Y-92.0
X90.25Y-101.25
X90.5Y-84.75
X90.5Y-86.5
X90.5Y-126.75
X91.5Y-84.75
X91.5Y-86.5
X91.75Y-116.25
X93.0Y-93.25
X93.75Y-84.0
X93.75Y-85.25
X93.75Y-86.5
X94.0Y-93.25
X94.75Y-92.25
X95.25Y-89.75
X95.25Y-119.85
X95.5Y-118.65
X96.25Y-89.75
X97.25Y-89.75
X97.75Y-90.75
X97.75Y-95.0
X98.0Y-106.25
X98.25Y-96.25
X98.25Y-97.25
X98.5Y-110.0
X98.75Y-90.75
X98.75Y-95.0
X99.5Y-96.25
X99.5Y-97.25
X99.75Y-90.75
X99.75Y-95.0
X99.75Y-116.25
X100.75Y-96.25
X100.75Y-97.25
X104.25Y-101.5
X104.25Y-102.5
X104.25Y-103.5
X104.25Y-104.5
X104.5Y-119.25
X105.0Y-119.75
X105.5Y-120.25
X105.75Y-128.25
X106.25Y-98.25
X106.5Y-94.75
X106.5Y-95.75
X106.5Y-96.75
X106.75Y-106.25
X107.0Y-107.75
X107.75Y-92.5
X107.75Y-93.5
X107.75Y-94.75
X107.75Y-95.75
X107.75Y-96.75
X108.0Y-104.625
X108.125Y-110.625
X109.25Y-112.75
X110.25Y-101.75
X111.288Y-96.5
X111.288Y-97.75
X111.288Y-98.75
X111.988Y-118.75
X112.0Y-118.0
X112.739Y-106.776
X112.75Y-96.5
X112.75Y-97.5
X112.75Y-98.5
X113.188Y-91.25
X113.188Y-92.0
X117.0Y-105.25
X117.0Y-112.25
X117.0Y-119.75
X117.0Y-123.75
X117.25Y-101.25
X117.5Y-107.0
X117.5Y-108.5
X117.5Y-110.0
X117.75Y-119.75
X117.75Y-123.75
X118.0Y-105.25
X118.0Y-112.25
X118.25Y-86.25
X118.25Y-90.25
X118.5Y-107.0
X118.5Y-108.0
X118.5Y-109.0
X118.5Y-110.0
X119.0Y-86.25
X119.0Y-90.25
X119.0Y-105.25
X119.0Y-112.25
X119.5Y-107.0
X119.5Y-108.5
X119.5Y-110.0
X119.588Y-119.0
X120.0Y-105.25
X120.0Y-112.25
X121.5Y-99.075
X121.5Y-119.75
X121.5Y-124.0
X121.75Y-114.25
X121.75Y-115.55
X122.5Y-115.55
X122.5Y-117.45
X122.5Y-119.75
X122.5Y-124.0
X122.75Y-86.25
X122.75Y-90.5
X122.75Y-114.25
X123.25Y-115.55
X123.5Y-117.45
X123.75Y-86.25
X123.75Y-90.5
X146.0Y-99.5
X146.0Y-118.5
X147.0Y-99.5
X147.0Y-118.5
T2
X98.21Y-128.25
X100.75Y-128.25
X103.29Y-128.25
T3
X156.75Y-97.67
X156.75Y-102.75
X157.0Y-116.5
X157.0Y-121.58
T4
X73.515Y-94.55
X76.515Y-99.25
X79.515Y-94.55
M30
